#N canvas 180 34 778 232 10;
#X obj -457 165 dac~;
#X obj -457 98 osc~ 440;
#X obj -403 98 vline~;
#X msg -403 71 1 1 \, 0.25 100 50 \, 0 1000 150;
#X obj -457 132 *~;
#X obj -403 38 r sentBang;
#X obj -20 118 s receiveBang;
#X obj -20 81 metro 500;
#X obj -20 49 loadbang;
#X text 49 49 testing sends to iOS;
#X text -315 36 testing audio out with receive;
#X connect 1 0 4 0;
#X connect 2 0 4 1;
#X connect 3 0 2 0;
#X connect 4 0 0 0;
#X connect 5 0 3 0;
#X connect 7 0 6 0;
#X connect 8 0 7 0;
